<svg width="43" height="43" viewBox="0 0 43 43" fill="none" xmlns="http://www.w3.org/2000/svg">
<path d="M16.0597 37.9051C15.6562 37.7704 15.3424 37.7704 15.1631 37.7704L14.9389 38.2194C15.1183 38.1296 15.4769 37.9949 15.8804 38.1296C16.5529 38.3541 16.8219 38.9378 16.6426 39.7011L16.4632 39.6562C15.9701 39.5215 15.6114 39.3868 15.1183 39.1174L14.9389 39.6562C15.4769 39.746 15.8804 39.8358 16.3287 39.9705L16.5081 40.0154C16.2391 40.8685 15.6562 41.2277 14.9389 41.0032C14.3561 40.8236 14.132 40.2848 14.132 40.2848L13.9526 40.9134C13.9526 40.9134 14.3113 41.1379 14.8493 41.3175C15.9701 41.6767 16.9115 41.2277 17.2702 40.1052C17.6737 39.0725 17.1805 38.2194 16.0597 37.9051Z" fill="white"/>
<path d="M4.26891 29.1046C4.26891 29.5087 3.95509 29.8679 3.50677 29.8679C3.10328 29.8679 2.74463 29.5536 2.74463 29.1046C2.74463 28.6556 3.05845 28.3413 3.50677 28.3413C3.91026 28.3413 4.26891 28.7005 4.26891 29.1046Z" fill="white"/>
<path d="M39.9103 29.0148C39.9103 29.4189 39.5964 29.7781 39.1481 29.7781C38.7446 29.7781 38.386 29.4638 38.386 29.0148C38.386 28.6107 38.6998 28.2515 39.1481 28.2515C39.5964 28.2515 39.9103 28.6107 39.9103 29.0148Z" fill="white"/>
<path d="M24.2192 22.594C24.2641 22.9981 24.2641 23.4022 24.2641 24.4798C24.2641 25.6472 24.2641 26.1411 24.2192 26.5003H25.071C25.0262 26.0962 25.0262 25.6472 25.0262 24.4798C25.0262 23.4022 25.0262 22.9532 25.071 22.594H24.2192Z" fill="white"/>
<path d="M25.8333 25.4677C25.8333 26.1861 26.3712 26.5902 27.2679 26.5902C28.2093 26.5902 28.7473 26.1861 28.7473 25.4228C28.7473 24.9289 28.4783 24.6146 27.9852 24.435C28.3887 24.3003 28.6128 23.986 28.6128 23.537C28.6128 22.8635 28.1197 22.5043 27.3127 22.5043C26.4609 22.5043 25.9677 22.9084 25.9677 23.5819C25.9677 24.0309 26.1919 24.3003 26.5954 24.4799C26.1022 24.6146 25.8333 24.9738 25.8333 25.4677ZM27.2679 22.8635C27.6265 22.8635 27.8507 23.1329 27.8507 23.5819C27.8507 24.0309 27.6265 24.3003 27.3127 24.3003C26.954 24.3003 26.7299 24.0309 26.7299 23.5819C26.7299 23.1329 26.9092 22.8635 27.2679 22.8635ZM27.2679 24.6595C27.6714 24.6595 27.9403 24.9738 27.9403 25.4677C27.9403 25.9616 27.7162 26.231 27.3127 26.231C26.9092 26.231 26.6402 25.9167 26.6402 25.4228C26.6402 24.9738 26.8644 24.6595 27.2679 24.6595Z" fill="white"/>
<path d="M29.2405 25.4677C29.2405 26.1861 29.7785 26.5902 30.6751 26.5902C31.6166 26.5902 32.1545 26.1861 32.1545 25.4228C32.1545 24.9289 31.8856 24.6146 31.3924 24.435C31.7959 24.3003 32.0201 23.986 32.0201 23.537C32.0201 22.8635 31.5269 22.5043 30.7199 22.5043C29.8681 22.5043 29.375 22.9084 29.375 23.5819C29.375 24.0309 29.5991 24.3003 30.0026 24.4799C29.5095 24.6146 29.2405 24.9738 29.2405 25.4677ZM30.6751 22.8635C31.0338 22.8635 31.2579 23.1329 31.2579 23.5819C31.2579 24.0309 31.0337 24.3003 30.7199 24.3003C30.3613 24.3003 30.1371 24.0309 30.1371 23.5819C30.1371 23.1329 30.3613 22.8635 30.6751 22.8635ZM30.6751 24.6595C31.0786 24.6595 31.3476 24.9738 31.3476 25.4677C31.3476 25.9616 31.1234 26.231 30.7199 26.231C30.3164 26.231 30.0923 25.9167 30.0923 25.4228C30.0474 24.9738 30.3164 24.6595 30.6751 24.6595Z" fill="white"/>
<path d="M34.396 23.986C33.9477 23.986 33.6787 24.1656 33.4994 24.3901C33.5442 23.4921 33.7683 22.9084 34.396 22.9084C34.8891 22.9084 35.1581 23.4023 35.1581 23.4023V22.6839C35.1581 22.6839 34.8891 22.5492 34.3512 22.5492C33.3649 22.5492 32.6924 23.3125 32.6924 24.6595C32.6924 26.0065 33.2304 26.6351 34.1718 26.6351C35.0236 26.6351 35.5616 26.0963 35.5616 25.2432C35.5168 24.435 35.1133 23.986 34.396 23.986ZM34.2167 26.1861C33.8132 26.1861 33.5442 25.8718 33.5442 24.7942C33.6787 24.6146 33.9028 24.435 34.1718 24.435C34.5753 24.435 34.7995 24.7044 34.7995 25.2432C34.7546 25.8718 34.5753 26.1861 34.2167 26.1861Z" fill="white"/>
<path d="M31.6612 11.1893C26.1469 5.62163 17.2254 5.62163 11.7559 11.1893C9.06597 13.8833 7.72101 17.3856 7.63135 20.9327V20.9776C7.63135 21.1123 7.63135 21.2919 7.63135 21.4266C7.63135 21.3817 7.63135 21.2919 7.63135 21.247C7.63135 22.4593 7.76584 23.6717 8.07967 24.9289C10.0523 32.562 17.7185 37.1418 25.2503 35.1662C28.792 34.2233 31.6612 32.0232 33.4994 29.1046H33.4545C31.7509 31.5742 29.2403 33.46 26.1469 34.2682C19.2876 36.0642 12.249 31.8885 10.4558 24.9289C10.0971 23.5819 10.0074 22.2797 10.0523 20.9776H10.6351C10.5903 22.0552 10.7247 23.1329 10.9937 24.2105C12.6077 30.4516 18.8842 34.1784 25.071 32.562C27.3125 31.9783 29.2403 30.7211 30.6749 29.1046C28.8368 30.8558 26.3262 31.9783 23.5915 31.9783C20.6326 31.9783 17.9875 30.7211 16.1046 28.7005C16.0597 28.6556 16.0597 28.6556 16.0149 28.6107C15.9701 28.5658 15.9701 28.5209 15.9252 28.5209C14.8493 27.3086 14.0423 25.8718 13.6388 24.1656C13.3698 23.088 13.2802 22.0552 13.325 20.9776H13.9975C13.9526 21.8756 14.0423 22.7737 14.2665 23.6717C15.4769 28.476 20.3188 31.3497 25.071 30.0924C25.8779 29.8679 26.6401 29.5536 27.3574 29.1046H27.1781C26.2366 29.5087 25.2054 29.7332 24.1295 29.7332C19.8705 29.7332 16.4632 26.2759 16.4632 21.9654C16.4632 21.6062 16.5081 21.2919 16.5529 20.9327H18.5703H26.8642H29.5541H33.3649H35.8306C35.6961 17.4305 34.3063 13.9282 31.6612 11.1893ZM12.0697 20.5735C12.3387 19.1367 13.0112 17.7448 14.0871 16.6672C17.0012 13.7037 21.7534 13.7037 24.6675 16.6672C25.4296 17.4305 25.9676 18.3285 26.3262 19.2714L12.0697 20.5735ZM26.9539 15.4998C23.5018 11.9975 17.8979 11.9975 14.4458 15.4998C13.0112 16.9366 12.2042 18.7326 11.98 20.6184L9.69361 20.798C9.96261 18.5979 10.9489 16.4427 12.6077 14.7364C16.6426 10.6505 23.188 10.6505 27.2229 14.7364C28.4333 15.9488 29.2403 17.4305 29.7335 18.9571L29.061 19.002C28.6575 17.6999 27.985 16.4876 26.9539 15.4998ZM32.4682 18.6877C31.9751 16.7121 30.9888 14.8712 29.4645 13.3445C24.9365 8.76467 17.584 8.76467 13.056 13.3445C10.9937 15.41 9.91777 18.0591 9.69361 20.798L8.34866 20.9327L7.63135 20.9776C7.81068 17.8795 9.02113 14.8262 11.3524 12.4914C16.3736 7.41766 24.533 7.41766 29.5541 12.4914C31.3026 14.2425 32.4234 16.3978 32.9614 18.6877H32.4682Z" fill="white"/>
<path d="M5.12075 31.3946C6.06222 30.6762 7.04852 30.9007 7.721 31.8436C8.03483 32.2926 8.21415 32.6967 8.21415 32.6967L7.67617 33.1008C7.67617 33.1008 7.8555 32.562 7.49684 32.0681C7.04852 31.4844 6.33122 31.4395 5.56907 32.0232C4.85176 32.562 4.67244 33.2355 5.12075 33.8641C5.52424 34.4029 5.97256 34.4478 5.97256 34.4478L5.65874 34.7621C5.65874 34.7621 5.21042 34.5825 4.7621 33.909C4.13445 33.011 4.22412 32.0232 5.12075 31.3946Z" fill="white"/>
<path d="M9.33499 36.109C8.61768 36.8723 8.34868 37.1418 8.12453 37.4112L7.58654 36.8724C7.85553 36.6478 8.16936 36.3784 8.88667 35.6151L9.82814 34.6722L8.75217 33.5946L7.8107 34.5375C7.09339 35.3008 6.8244 35.5702 6.60024 35.8396L6.06226 35.3008C6.33125 35.0763 6.64507 34.8069 7.36238 34.0436C8.03486 33.3701 8.25902 33.1007 8.48318 32.8313L10.5903 34.9416C10.2765 35.1661 10.0075 35.4355 9.33499 36.109Z" fill="white"/>
<path d="M11.5317 38.5786C11.1282 39.1623 10.4109 39.2072 9.78324 38.7582C9.15559 38.3092 8.93143 37.6357 9.69357 36.603C10.4109 35.5703 11.0385 35.4805 11.98 36.0193L12.3835 36.2438C12.6076 36.3785 12.787 36.3785 12.787 36.3785L12.3835 36.9622L11.6213 36.4683C10.9489 36.0193 10.5454 36.0642 10.0522 36.6928C10.4109 36.5132 10.8592 36.5581 11.2627 36.8724C11.8007 37.3214 11.9352 37.9949 11.5317 38.5786ZM10.9489 38.1296C11.2627 37.6806 11.2627 37.2765 10.9937 37.052C10.7247 36.8275 10.2764 36.9622 10.0074 37.4112C9.69357 37.8602 9.69357 38.2643 9.96256 38.4888C10.2316 38.7133 10.635 38.5786 10.9489 38.1296Z" fill="white"/>
<path d="M14.8493 38.1296C14.4907 37.7255 14.1768 37.5908 13.7285 37.3663L13.6389 37.3214L13.056 38.5337C12.6077 39.4766 12.4284 39.8358 12.3387 40.195L11.6663 39.8358C11.8456 39.5664 12.0249 39.1623 12.5181 38.2643C12.9216 37.4112 13.1009 37.052 13.1905 36.7377L15.1183 37.6806L14.8493 38.1296Z" fill="white"/>
<path d="M20.3189 38.7583L20.2741 39.2522C19.9154 39.0277 19.6464 38.9828 19.3774 38.9379H19.2878L19.1084 40.2849C18.9739 41.3176 18.9291 41.7217 18.9291 42.0809L18.167 41.9911C18.2566 41.6768 18.3014 41.2278 18.4359 40.1951L18.6153 38.8481H18.5256C18.2118 38.8032 17.9428 38.8032 17.5393 38.9379L17.5841 38.444L20.3189 38.7583Z" fill="white"/>
<path d="M23.6812 38.7582C23.3674 39.2521 23.2329 39.7909 22.8743 40.6889C22.4259 41.7665 22.157 42.3053 21.4396 42.3053C21.1707 42.3053 21.0362 42.2155 21.0362 42.2155V41.6318C21.0362 41.6318 21.2603 41.8563 21.5293 41.8563C21.7535 41.8563 21.9328 41.7216 22.0673 41.542L20.812 39.5215C20.6775 39.2521 20.5878 39.1623 20.3188 38.8031H21.2155C21.3051 39.1623 21.35 39.297 21.6638 39.7909L22.3811 40.9134C22.4259 40.8236 22.4708 40.6889 22.5156 40.5991C22.8743 39.6113 22.9639 39.297 22.9639 38.7582H23.6812Z" fill="white"/>
<path d="M24.8021 39.4318L25.0711 39.3869L24.8021 40.4196L25.4746 41.2278L25.2056 41.2727L24.3538 40.5094L24.8021 39.4318ZM25.5642 39.2522L25.8332 39.2073L25.5642 40.24L26.2367 41.0482L25.9677 41.0931L25.1159 40.3298L25.5642 39.2522Z" fill="white"/>
<path d="M29.9128 40.4645L29.1058 40.7788C28.9713 40.4196 28.8817 40.2849 28.4334 39.791L27.2677 38.4889L27.2229 40.1951C27.2229 40.8237 27.2229 41.0482 27.3126 41.4074L26.7297 41.6319C26.7746 41.2278 26.7746 41.0931 26.8194 40.3298L26.9539 37.8603L27.2677 37.7256L27.4471 37.6807L29.1955 39.7012C29.5093 40.0604 29.6438 40.1502 29.9128 40.4645Z" fill="white"/>
<path d="M31.9302 37.2316C32.513 38.2194 32.1992 39.2521 31.2129 39.8358C30.7197 40.1501 30.3163 40.2399 30.3163 40.2399L30.0024 39.7011C30.0024 39.7011 30.5404 39.9256 31.0784 39.6113C31.706 39.2072 31.8405 38.5337 31.3922 37.7255L31.2129 37.8153C30.7646 38.0847 30.4507 38.3092 30.0473 38.6684L29.7783 38.2194C30.3163 37.9949 30.6301 37.8602 31.0784 37.5908L31.2129 37.501C30.7646 36.8724 30.1369 36.6479 29.5541 37.052C29.0161 37.3663 28.9713 37.9051 28.9713 37.9051L28.6575 37.501C28.6575 37.501 28.8368 37.0969 29.4644 36.7377C30.4508 36.1091 31.3922 36.2887 31.9302 37.2316Z" fill="white"/>
<path d="M33.2303 34.0437L33.5441 34.4478C33.1406 34.5825 32.9165 34.7172 32.6923 34.8968L32.6027 34.9866L33.4545 36.0193C34.1269 36.8275 34.3959 37.1418 34.6201 37.3663L34.0373 37.8602C33.8579 37.5459 33.589 37.2316 32.9613 36.4234L32.1095 35.3907L32.0198 35.4356C31.7957 35.6601 31.6164 35.8397 31.3922 36.1989L31.0784 35.7948L33.2303 34.0437Z" fill="white"/>
<path d="M36.6825 32.6069C37.4446 33.2804 37.7585 33.5498 38.0723 33.7294L37.5791 34.3131C37.355 34.0437 37.0411 33.7743 36.279 33.1008L35.5169 32.4273L36.548 35.5254L36.0548 36.0642C35.8307 35.7948 35.5617 35.5703 34.8444 34.9417C34.0822 34.2682 33.7684 33.9988 33.4546 33.8192L33.9477 33.2355C34.1719 33.5049 34.4857 33.7743 35.2479 34.4478L36.01 35.1213L34.9789 32.0232L35.472 31.4844C35.6962 31.7538 35.9652 31.9783 36.6825 32.6069Z" fill="white"/>
<path d="M38.1619 32.6518L38.0274 32.8763L37.4894 31.9334L36.4583 31.8435L36.5927 31.619L37.7135 31.5741L38.1619 32.6518ZM38.5654 31.9783L38.4309 32.2028L37.8929 31.2598L36.8617 31.17L36.9962 30.9455L38.117 30.9006L38.5654 31.9783Z" fill="white"/>
<path d="M2.34136 23.8513C3.238 23.6717 3.64148 23.5819 3.95531 23.4921L4.04497 24.1656C3.73115 24.1656 3.3725 24.2554 2.47586 24.435L1.31023 24.6595L1.57922 26.0514L2.74485 25.8269C3.64149 25.6473 4.00014 25.5575 4.31397 25.4677L4.49329 26.1412C4.17947 26.1412 3.77598 26.231 2.87934 26.4106C2.02754 26.5902 1.71371 26.6351 1.44472 26.7698L0.906738 24.1207C1.17573 24.0758 1.53438 24.0309 2.34136 23.8513Z" fill="white"/>
<path d="M3.32755 20.8878H3.86553C3.86553 20.8878 3.86553 21.6062 3.86553 21.9205C3.86553 22.2348 3.91036 22.9083 3.91036 22.9083C3.59654 22.8634 3.23788 22.8634 2.29641 22.9083C1.44461 22.9532 1.08595 22.9532 0.816957 22.9981L0.727295 21.0674H1.17561C1.04112 21.5164 1.04112 21.8307 1.04112 22.2797V22.3695L2.07225 22.3246C2.07225 21.9205 2.02742 21.696 1.93775 21.3368H2.43091C2.34124 21.7409 2.34124 21.9654 2.34124 22.3246L3.55171 22.2797V22.1001C3.55171 21.6511 3.50687 21.2919 3.32755 20.8878Z" fill="white"/>
<path d="M1.7136 18.1937C2.34124 18.2386 2.65507 18.6876 2.61023 19.5857V19.8102C3.19305 19.8551 3.5517 19.8551 3.86553 19.8102L3.8207 20.5286C3.50687 20.4837 3.14822 20.4388 2.20675 20.3939C1.35494 20.349 1.04112 20.349 0.727295 20.349L0.772126 19.2713C0.816958 18.5529 1.13078 18.1937 1.7136 18.1937ZM1.7136 18.8672C1.31011 18.8223 1.08595 19.0468 1.04112 19.4509V19.7204L2.34124 19.8102V19.6306C2.38607 19.1366 2.16191 18.8672 1.7136 18.8672Z" fill="white"/>
<path d="M3.64127 15.9039C4.22408 16.0386 4.44824 16.5325 4.26891 17.3856L4.17925 17.7448L4.08958 18.3734C3.77576 18.2836 3.41711 18.1938 2.52047 18.0142C1.66866 17.8346 1.35484 17.7897 1.04102 17.7448L1.26517 16.6223C1.39967 15.9039 1.71349 15.5896 2.16181 15.6794C2.52047 15.7692 2.78946 16.0386 2.74463 16.5325C2.92396 15.9937 3.23778 15.859 3.64127 15.9039ZM1.4445 17.206L2.47564 17.4305L2.52047 17.206C2.61013 16.757 2.47564 16.5325 2.07215 16.4427C1.75833 16.3978 1.53417 16.5325 1.48933 16.9366L1.4445 17.206ZM3.5516 16.5774C3.14812 16.4876 2.87912 16.757 2.78946 17.2509L2.74463 17.4754L3.91026 17.6999L3.95509 17.4754C4.04475 16.9815 3.91026 16.6223 3.5516 16.5774Z" fill="white"/>
<path d="M4.31381 12.4015C3.55167 12.0423 3.23784 11.8627 2.96885 11.728L2.65503 12.3566C2.92402 12.4464 3.23784 12.5811 4.04482 12.9403C4.89663 13.3444 5.21045 13.5241 5.47944 13.6588L5.79327 13.0301C5.52427 12.9403 5.16562 12.8056 4.31381 12.4015Z" fill="white"/>
<path d="M4.44837 13.5242C3.91039 13.2997 3.5069 13.5691 3.23791 14.2426L3.10341 14.6018C2.56543 14.3773 2.25161 14.2426 1.98262 14.1079L1.71362 14.7365C2.02745 14.8263 2.34127 14.961 3.23791 15.3202C4.04488 15.6345 4.3587 15.7692 4.58286 15.9488L4.80702 15.3202L4.85185 15.1406C5.21051 14.3324 5.03118 13.7487 4.44837 13.5242ZM4.62769 15.0508L4.53803 15.1855L3.32757 14.6916L3.41724 14.4671C3.59656 14.063 3.86556 13.9732 4.22421 14.1079C4.67253 14.2875 4.80702 14.6018 4.62769 15.0508Z" fill="white"/>
<path d="M6.19683 9.39323C6.95897 9.93204 7.31763 10.1565 7.58662 10.2912L7.18313 10.83C6.95897 10.6055 6.64515 10.4259 5.883 9.88714L5.12086 9.39323L6.37615 12.0424L6.06233 12.6261C5.83817 12.4016 5.52435 12.1771 4.80704 11.7281C4.0449 11.1893 3.73107 11.0097 3.46208 10.875L3.86557 10.2912C4.08973 10.5157 4.40355 10.6953 5.16569 11.2342L5.92783 11.7281L4.67254 9.07893L5.0312 8.54012C5.21052 8.71972 5.52435 8.89932 6.19683 9.39323ZM3.05859 9.93204L3.37242 9.48303C3.37242 9.48303 3.73107 9.75244 3.95523 9.43813C4.17939 9.12383 3.77591 8.89932 3.77591 8.89932L4.08973 8.45032C4.08973 8.45032 4.58288 8.94422 4.17939 9.57283C3.68624 10.2014 3.05859 9.93204 3.05859 9.93204Z" fill="white"/>
<path d="M9.64879 5.80127C10.3661 6.56458 10.2316 7.50749 9.46946 8.2259C9.06597 8.5851 8.75215 8.76471 8.75215 8.76471L8.34866 8.3157C8.34866 8.3157 8.88664 8.4055 9.29013 8.0463C9.78328 7.59729 9.78328 6.92378 9.2453 6.34007L9.1108 6.47477C8.75215 6.78908 8.52799 7.05848 8.21416 7.41769L7.90034 7.05848C8.30383 6.78908 8.57282 6.56458 8.93148 6.25027L9.06597 6.16047C8.52799 5.66657 7.99 5.62166 7.49685 6.07067C7.09336 6.42988 7.09336 6.96868 7.09336 6.96868L6.77954 6.65438C6.77954 6.65438 6.86921 6.25027 7.36236 5.84617C8.1245 5.08286 9.02114 5.08286 9.64879 5.80127Z" fill="white"/>
<path d="M13.1458 5.5318L12.4285 5.9359C12.2491 5.6665 12.1595 5.5767 11.6215 5.21749L10.3214 4.31948L10.68 5.8461C10.8145 6.38491 10.8594 6.56451 10.9938 6.87882L10.5455 7.19312C10.5007 6.83392 10.4559 6.69921 10.3214 6.07061L9.87305 3.87048L10.142 3.69088L10.2765 3.60107L12.2491 4.99299C12.6526 5.2624 12.832 5.3522 13.1458 5.5318Z" fill="white"/>
<path d="M14.894 4.18478L15.1182 4.63379C15.1182 4.63379 14.3561 4.94809 14.1767 5.0379C13.9974 5.1277 13.2801 5.442 13.2801 5.442C13.1904 5.1277 13.0559 4.81339 12.6525 3.96028C12.2938 3.15207 12.1593 2.88267 11.98 2.61326L13.7284 1.80505L13.9077 2.20916C13.4146 2.25406 13.1456 2.34386 12.7421 2.52346L12.6973 2.61326L13.1456 3.60108C13.5043 3.42147 13.6836 3.33167 13.9974 3.10717L14.1767 3.55617C13.8181 3.64598 13.5939 3.73578 13.2353 3.87048L13.7284 4.99299L13.8629 4.94809C14.3112 4.67869 14.6251 4.49909 14.894 4.18478Z" fill="white"/>
<path d="M15.0287 1.35607C15.0735 1.67037 15.1632 1.98468 15.4322 2.79289C15.7012 3.6909 15.7908 4.0501 15.9253 4.3195L15.2528 4.54401C15.208 4.2297 15.1183 3.8705 14.8494 2.97249C14.5804 2.16428 14.4907 1.80507 14.3562 1.53567L15.0287 1.35607ZM17.9876 3.8256L17.0461 4.0501L15.477 2.79289L15.8805 1.98467C16.1046 1.53567 16.1943 1.31117 16.2391 0.996864L16.8668 0.817261C16.8668 0.817261 16.5978 1.22137 16.3736 1.67037L15.9701 2.43368L16.6426 2.97249C17.1806 3.33169 17.4944 3.6011 17.9876 3.8256Z" fill="white"/>
<path d="M19.3775 0.413086L19.4671 0.862092C19.1085 0.77229 18.8395 0.772291 18.6153 0.817192H18.5257L18.705 2.02951C18.8395 2.97242 18.9292 3.33162 19.0188 3.64593L18.3463 3.78063C18.3463 3.46632 18.3015 3.10712 18.1222 2.16421L17.9428 0.951893H17.8532C17.5842 0.996794 17.36 1.0866 17.0462 1.2662L16.9565 0.817192L19.3775 0.413086Z" fill="white"/>
<path d="M22.112 1.17645C22.112 1.84996 21.7086 2.20917 20.8119 2.20917H20.5878C20.5878 2.83778 20.6326 3.15208 20.6774 3.46639L20.0049 3.51129C20.0498 3.19698 20.0498 2.79288 20.0049 1.84996C19.9601 0.996852 19.9601 0.637647 19.9153 0.323343L20.9912 0.278442C21.7086 0.323343 22.112 0.592747 22.112 1.17645ZM21.4844 1.22136C21.4844 0.817251 21.2602 0.592747 20.8119 0.592747H20.5429L20.5878 1.89487H20.7671C21.3051 1.93977 21.5292 1.67036 21.4844 1.22136Z" fill="white"/>
<path d="M22.2913 1.85003C22.4258 0.817316 23.1431 0.278509 24.1743 0.413211C25.1157 0.547912 25.6537 1.22142 25.5192 2.20923C25.3847 3.24195 24.6674 3.78075 23.6363 3.64605C22.65 3.51135 22.1568 2.83784 22.2913 1.85003ZM24.8019 2.20923C24.8916 1.35612 24.6226 0.817316 24.0398 0.727515C23.4569 0.637714 23.0535 1.08672 22.9638 1.89493C22.8741 2.74804 23.1431 3.28685 23.7259 3.37665C24.2639 3.46645 24.7122 3.01744 24.8019 2.20923Z" fill="white"/>
<path d="M28.1196 1.44583L27.9851 1.89483C27.6713 1.67033 27.4472 1.58053 27.223 1.49073L27.1333 1.44583L26.8195 2.61324C26.5505 3.51125 26.4609 3.87046 26.416 4.18476L25.7435 4.00516C25.878 3.73575 25.9677 3.37655 26.2367 2.43364L26.5505 1.26622L26.4608 1.22132C26.1919 1.13152 25.9677 1.13152 25.5642 1.17642L25.6987 0.727417L28.1196 1.44583Z" fill="white"/>
<path d="M29.2852 4.76851L29.1058 5.26242C29.1058 5.26242 28.4334 4.94811 28.2092 4.85831C28.0299 4.76851 27.2229 4.4542 27.2229 4.4542C27.3574 4.1848 27.5367 3.8256 27.8954 2.97248C28.2092 2.16427 28.3437 1.84997 28.4334 1.58057L30.1818 2.34388L30.0025 2.79288C29.6438 2.47858 29.3748 2.34388 28.9713 2.16427L28.8817 2.11937L28.523 3.06229C28.8817 3.19699 29.1058 3.28679 29.4645 3.37659L29.2852 3.8256C28.9713 3.60109 28.7472 3.51129 28.4334 3.33169L27.985 4.4542L28.1195 4.49911C28.523 4.72361 28.8817 4.81341 29.2852 4.76851Z" fill="white"/>
<path d="M31.3474 6.56457L30.6301 6.11557C30.7198 5.80126 30.675 5.66656 30.675 5.12775V4.67875L30.3163 4.85835C29.868 5.08285 29.7335 5.21755 29.5093 5.44206L28.9265 5.12775C28.9265 5.12775 29.2852 4.99305 29.6887 4.81345L30.675 4.36444L30.6301 3.24193C30.6301 2.79292 30.5405 2.43372 30.5405 2.43372L31.2578 2.83782C31.1681 3.15213 31.1681 3.33173 31.2129 3.82564V4.18484L31.4819 4.05014C31.9302 3.82564 32.1096 3.69093 32.3337 3.46643L32.8269 3.78073C32.8269 3.78073 32.5131 3.91544 32.0647 4.09504L31.1681 4.49914L31.2129 5.71146C31.2578 6.25027 31.3474 6.56457 31.3474 6.56457Z" fill="white"/>
<path d="M34.4409 7.01353C33.8581 7.73194 33.5891 8.04624 33.4546 8.31565L32.9614 7.86664C33.1856 7.64214 33.4098 7.41763 33.9029 6.74413L32.7821 5.84611C32.2441 6.51962 32.0648 6.78903 31.9303 7.01353L31.3923 6.60942C31.6165 6.38492 31.8407 6.11552 32.4235 5.35221C32.9614 4.6787 33.1408 4.4093 33.3201 4.13989L33.8581 4.5889C33.6788 4.7685 33.4546 5.0379 33.0063 5.57671L34.1271 6.47472C34.5754 5.89101 34.7547 5.66651 34.9341 5.39711L35.472 5.84611C35.203 6.07062 34.9789 6.34002 34.4409 7.01353Z" fill="white"/>
<path d="M36.8619 9.66264C36.1446 10.2912 35.8308 10.5606 35.6514 10.7852L35.2479 10.2463C35.5169 10.0667 35.7859 9.84224 36.5032 9.21363L37.1757 8.62992L34.3065 9.16873L33.8582 8.67482C34.1271 8.49522 34.3961 8.27072 35.0686 7.73191C35.7859 7.1033 36.0549 6.8788 36.2342 6.6543L36.6826 7.1931C36.4136 7.37271 36.1446 7.59721 35.4273 8.22582L34.7548 8.80952L37.624 8.27072L38.0275 8.76462C37.7585 8.89933 37.4895 9.12383 36.8619 9.66264Z" fill="white"/>
<path d="M38.3413 12.0424C37.5343 12.5363 37.2205 12.7159 36.9515 12.9404L36.6377 12.3118C36.9067 12.1771 37.1757 12.0424 37.8033 11.6383C37.6688 11.5485 37.3998 11.3239 37.1757 11.0096C36.8619 10.4708 36.9963 10.1116 37.4447 9.84223C37.8481 9.61773 38.1171 9.43813 38.3413 9.21362L38.7 9.79733C38.3861 9.93203 38.0723 10.1116 37.8033 10.2912C37.4895 10.4708 37.3998 10.6953 37.5792 11.0096C37.7137 11.2341 37.893 11.4137 38.0275 11.5036C38.7448 11.0545 39.0138 10.8749 39.2379 10.6953L39.5966 11.279C39.3276 11.4137 39.0586 11.5934 38.3413 12.0424Z" fill="white"/>
<path d="M38.4308 15.0507L37.9825 15.2752C37.9825 15.2752 37.6687 14.5119 37.579 14.2874C37.4894 14.0629 37.1755 13.3894 37.1755 13.3894C37.4894 13.2996 37.8032 13.1649 38.655 12.7608C39.4171 12.4016 39.731 12.2669 40 12.0873L40.7621 13.8833L40.3586 14.0629C40.3138 13.569 40.2241 13.2996 40.0448 12.8955L40 12.8057L39.0585 13.2547C39.2378 13.6139 39.3275 13.7935 39.5516 14.1078L39.1033 14.2874C39.0136 13.8833 38.9688 13.7037 38.7895 13.3445L37.7135 13.8384L37.7584 13.9731C37.9377 14.4221 38.117 14.7813 38.4308 15.0507Z" fill="white"/>
<path d="M39.462 14.6915C40.4931 14.4221 41.2553 15.0059 41.4794 15.9937C41.6139 16.4876 41.5691 16.8468 41.5691 16.8468L40.9863 16.9815C40.9863 16.9815 41.3001 16.5774 41.1656 16.0386C40.9863 15.3651 40.4035 15.0957 39.5965 15.3202C38.8344 15.4998 38.4309 16.0386 38.6102 16.7121C38.7447 17.2958 39.1034 17.4754 39.1034 17.4754L38.7447 17.6101C38.7447 17.6101 38.4309 17.2958 38.2964 16.5774C38.0722 15.7243 38.4757 14.9161 39.462 14.6915Z" fill="white"/>
<path d="M41.8381 18.0591C41.5243 18.0591 41.2104 18.104 40.3586 18.1938C39.4172 18.2836 39.0585 18.3734 38.7895 18.4183L38.655 17.6999C38.9689 17.6999 39.3723 17.655 40.3138 17.5652C41.1656 17.4754 41.4794 17.4305 41.7933 17.3407L41.8381 18.0591ZM38.9689 20.5286L38.924 19.5857L40.4035 18.2387L41.0759 18.7775C41.4794 19.0918 41.6588 19.2265 41.9726 19.3163L42.0622 19.9898C42.0622 19.9898 41.7036 19.6306 41.3001 19.3612L40.6276 18.7775L40 19.3612C39.5068 19.8551 39.2378 20.1245 38.9689 20.5286Z" fill="white"/>
<path d="M40.538 23.1777C39.5966 23.1328 39.1931 23.1328 38.9241 23.1777L38.9689 22.4593C39.2827 22.5042 39.6414 22.5491 40.5828 22.5491L41.4795 22.594L39.0137 21.0225V20.349C39.3276 20.3939 39.6862 20.4388 40.538 20.4388C41.4795 20.4837 41.8381 20.4837 42.152 20.4388V21.1572C41.8381 21.1123 41.4795 21.0674 40.538 21.0674L39.6414 21.0225L42.1071 22.594V23.2675C41.7036 23.2226 41.3898 23.2226 40.538 23.1777Z" fill="white"/>
<path d="M39.9553 26.4106C39.0586 26.231 38.6551 26.1412 38.3413 26.1412L38.5206 25.4677C38.8345 25.5575 39.1931 25.6473 40.0898 25.8269L40.9864 26.0065L38.7896 24.0757L38.8793 23.4022C39.1483 23.492 39.5069 23.5818 40.3587 23.7165C41.2554 23.8961 41.6589 23.941 41.9279 23.9859L41.7934 24.6594C41.4795 24.5696 41.1209 24.4798 40.2242 24.3002L39.3276 24.1206L41.5244 26.0514L41.3899 26.68C41.1209 26.6351 40.8071 26.5453 39.9553 26.4106ZM42.6452 24.6145L42.5555 25.1533C42.5555 25.1533 42.1072 25.0635 42.0623 25.4228C41.9727 25.782 42.4658 25.8718 42.4658 25.8718L42.3762 26.4106C42.3762 26.4106 41.7037 26.1861 41.8382 25.3778C41.9279 24.6145 42.6452 24.6145 42.6452 24.6145Z" fill="white"/>
</svg>
