<svg width="183" height="77" viewBox="0 0 183 77" fill="none" xmlns="http://www.w3.org/2000/svg">
<path d="M43.034 74.5556C48.995 74.5556 52.8121 71.4575 52.8121 65.9725C52.8121 60.4875 48.8904 57.3895 43.034 57.3895H22.1706V11.2747C22.1706 4.06297 18.1443 0 11.0853 0C4.02627 0 0 4.06297 0 11.2747V63.2808C0 70.4926 4.02627 74.5556 11.0853 74.5556H43.034ZM102.34 77C108.533 77 112.993 73.6872 112.993 66.337V36.6255C112.993 25.0307 102.235 17.1111 86.1775 17.1111C71.7463 17.1111 61.7231 21.4591 59.5191 28.7576C59.2042 29.7929 59.0993 30.621 59.0993 31.9151C59.0993 36.3149 62.7202 39.4206 67.8105 39.4206C71.0116 39.4206 73.7404 38.2819 76.2593 36.0043C79.9852 32.6398 81.6645 31.7598 85.023 31.7598C89.0637 31.7598 92.0024 33.8303 92.0024 37.6607V40.4559L79.303 41.2323C63.8222 42.164 55.2685 48.1167 55.2685 59.0903C55.2685 69.391 64.242 76.5341 74.7899 76.5341C81.507 76.5341 88.539 73.6355 91.5826 68.0451H92.0024C92.6846 74.2566 96.6729 77 102.34 77ZM83.9027 61.1111C80.0189 61.1111 77.3758 59.2239 77.3758 55.9886C77.3758 53.0768 79.7492 51.0817 83.9566 50.7582L93.3423 50.1111V53.9935C93.3423 58.3611 88.8113 61.1111 83.9027 61.1111ZM132.268 77C138.519 77 142.946 73.5445 142.946 66.0663V65.86H143.363C146.019 72.5131 152.269 76.5358 160.707 76.5358C175.031 76.5358 183 66.0147 183 47.2418C183 28.4173 174.979 17.9478 160.447 17.9478C152.217 17.9478 146.071 22.0737 143.363 29.0362H142.946V10.9853C142.946 3.45546 138.519 0 132.268 0C126.018 0 121.591 3.45546 121.591 10.9337V66.0663C121.591 73.5445 126.018 77 132.268 77ZM152.32 59.8889C147.029 59.8889 143.747 54.8206 143.698 46.4978C143.747 38.2818 147.078 33 152.32 33C157.512 33 160.893 38.2817 160.893 46.4444C160.893 54.6605 157.561 59.8889 152.32 59.8889Z" fill="url(#paint0_linear)"/>
<defs>
<linearGradient id="paint0_linear" x1="91.5" y1="0" x2="91.5" y2="84.6117" gradientUnits="userSpaceOnUse">
<stop stop-color="white" stop-opacity="0.208749"/>
<stop offset="1" stop-color="white"/>
</linearGradient>
</defs>
</svg>
